<svg width="476" height="142" viewBox="0 0 476 142" fill="none" xmlns="http://www.w3.org/2000/svg">
<g clip-path="url(#clip0_378_112)">
<path d="M13.42 43.73L28.97 63.45L26.22 65.59C25.23 66.36 23.81 66.19 23.03 65.21L10.49 49.54C9.76002 48.63 9.84002 47.33 10.66 46.5L13.44 43.72L13.42 43.73Z" fill="#FBF8FF"/>
<path d="M128.32 43.73L112.77 63.45L115.52 65.59C116.51 66.36 117.93 66.19 118.71 65.21L131.25 49.54C131.98 48.63 131.9 47.33 131.08 46.5L128.3 43.72L128.32 43.73Z" fill="#FBF8FF"/>
<path d="M108.33 27.49C103.92 24.33 98.72 22.48 93.31 22.13C86.95 21.73 78.05 21.26 70.86 21.26C63.67 21.26 54.77 21.73 48.41 22.13C43 22.47 37.8 24.33 33.39 27.49C27.53 31.69 19.44 37.7 15.73 41.41L30.72 60.56C31.13 61.08 31.88 61.18 32.41 60.77L38.9 55.73C39.61 55.18 40.53 55.01 41.39 55.26C42.11 55.47 42.61 56.14 42.61 56.89V108.74C42.61 109.53 43.25 110.17 44.04 110.17H97C98.16 110.17 99.1 109.23 99.1 108.07V56.89C99.1 56.14 99.6 55.47 100.32 55.26C101.18 55.01 102.1 55.18 102.81 55.73L109.3 60.77C109.82 61.18 110.58 61.08 110.99 60.56L125.98 41.41C122.27 37.7 114.18 31.69 108.32 27.49H108.33ZM86.03 25.63C84.48 28.24 80.46 32.57 70.86 32.57C61.26 32.57 57.24 28.24 55.69 25.63C55.16 24.74 55.72 23.6 56.76 23.5C59.62 23.23 65.23 22.79 70.86 22.79C76.49 22.79 82.1 23.24 84.96 23.5C85.99 23.6 86.56 24.73 86.03 25.63Z" fill="#FBF8FF"/>
<path d="M97.9001 113.05H44.0601C43.2601 113.05 42.6101 113.7 42.6101 114.5V116.17C42.6101 116.99 42.9001 117.79 43.4301 118.41L44.3701 119.52C44.8801 120.12 45.6301 120.47 46.4301 120.47H70.8501H94.6201C95.8301 120.47 96.9801 119.94 97.7601 119.02L98.4201 118.25C98.8601 117.73 99.1101 117.07 99.1101 116.39V114.26C99.1101 113.59 98.5701 113.05 97.9001 113.05Z" fill="#FBF8FF"/>
<path d="M237.52 20.5601H257.59C259.18 20.5601 260.48 21.9201 260.48 23.5901V27.7301C260.48 28.2701 260.06 28.7001 259.55 28.7001H215.98C215.2 28.7001 214.57 28.0401 214.57 27.2201V23.1301C214.57 21.7101 215.67 20.5601 217.02 20.5601H237.52Z" fill="#FBF8FF"/>
<path d="M261.15 31.5901H255.86C255.68 31.5901 255.55 31.7801 255.62 31.9601L281.24 97.9101C284.5 96.9401 287.81 95.8401 291.17 94.5901L261.16 31.5901H261.15Z" fill="#FBF8FF"/>
<path d="M287.01 112.75C287.17 113.16 287.6 113.37 288.01 113.25C290.15 112.59 291.99 111.97 293.51 111.44C296.08 110.54 297.3 107.47 296.09 104.92L293.48 99.4399C290.02 100.78 286.6 101.97 283.23 103.03L287.01 112.76V112.75Z" fill="#FBF8FF"/>
<path d="M254.04 31.91C253.96 31.69 253.76 31.55 253.54 31.55L249.34 31.57L266.96 101.43C270.68 100.7 274.49 99.8001 278.37 98.7301L254.04 31.91Z" fill="#FBF8FF"/>
<path d="M271.05 117.61C275.94 116.6 280.33 115.48 284.09 114.42L280.27 103.93C276.21 105.11 272.24 106.09 268.35 106.89L271.05 117.61Z" fill="#FBF8FF"/>
<path d="M254.51 120.18V120.23C259.65 119.67 264.51 118.9 268.99 118.03L266.37 107.29C261.83 108.16 257.4 108.8 253.12 109.22L254.51 120.18Z" fill="#FBF8FF"/>
<path d="M248 31.97C247.94 31.72 247.72 31.55 247.48 31.55L243.26 31.57L252.4 103.55C256.49 103.17 260.71 102.59 265.03 101.8L248 31.97Z" fill="#FBF8FF"/>
<path d="M240.05 121.15C244.35 121.08 248.54 120.82 252.57 120.43L251.24 109.39C247.32 109.73 243.51 109.9 239.83 109.92L240.05 121.15Z" fill="#FBF8FF"/>
<path d="M250.56 103.71L241.93 31.93C241.9 31.72 241.74 31.56 241.53 31.56L238.71 31.54C238.5 31.54 238.33 31.72 238.34 31.94L239.73 104.19C243.23 104.17 246.84 104.02 250.56 103.72V103.71Z" fill="#FBF8FF"/>
<path d="M236.53 32.06C236.53 31.77 236.3 31.53 236.02 31.53H232.31C231.94 31.53 231.64 31.83 231.6 32.21L224.7 103.46C228.7 103.86 232.91 104.12 237.33 104.17L236.53 32.06Z" fill="#FBF8FF"/>
<path d="M223.06 120.48C227.51 120.9 232.14 121.15 236.91 121.17C237.25 121.17 237.52 120.88 237.52 120.53L237.4 109.91C232.76 109.86 228.34 109.58 224.16 109.15L223.06 120.48Z" fill="#FBF8FF"/>
<path d="M229.96 32.4499C230.01 31.9699 229.65 31.5399 229.19 31.5399H226.35C226.1 31.5299 225.89 31.7099 225.83 31.9599L210.38 101.28C213.98 102.03 217.86 102.68 221.98 103.17L229.95 32.4499H229.96Z" fill="#FBF8FF"/>
<path d="M206.8 117.36C206.71 117.78 206.96 118.2 207.37 118.27C211.35 119.01 215.6 119.67 220.08 120.17L221.36 108.82C217 108.28 212.93 107.56 209.17 106.75L206.81 117.36H206.8Z" fill="#FBF8FF"/>
<path d="M190.42 113.27C190.25 113.75 190.49 114.28 190.97 114.42C194.73 115.49 199.12 116.6 204 117.61L206.67 106.19C201.98 105.08 197.83 103.84 194.29 102.62L190.43 113.27H190.42Z" fill="#FBF8FF"/>
<path d="M223.95 32.14C224.02 31.82 223.8 31.52 223.49 31.52H220.49C220.25 31.52 220.03 31.68 219.94 31.92L196.15 97.5C199.6 98.62 203.55 99.74 207.95 100.74L223.96 32.14H223.95Z" fill="#FBF8FF"/>
<path d="M179.19 104.41C177.85 107.22 179.19 110.62 182.03 111.61C183.7 112.19 185.73 112.86 188.07 113.57L192.4 101.96C187.84 100.31 184.44 98.77 182.37 97.75L179.19 104.42V104.41Z" fill="#FBF8FF"/>
<path d="M218.38 32.24C218.51 31.89 218.27 31.52 217.91 31.52H215.42C214.5 31.52 213.67 32.06 213.26 32.92L184.6 93.07C186.98 94.15 190.24 95.5 194.29 96.89L218.38 32.24Z" fill="#FBF8FF"/>
<path d="M381.73 41.4801H371.76C370.59 41.4801 369.65 40.5301 369.65 39.3701V35.4501C369.65 33.9001 370.91 32.6401 372.46 32.6401H381.73V41.4901V41.4801Z" fill="#FBF8FF"/>
<path d="M354.77 99.3102L354.81 99.8002C354.93 101.33 356.08 102.57 357.59 102.83L399.77 110.36C400.83 110.55 401.88 109.96 402.27 108.95L402.79 107.61C403.3 106.29 402.48 104.83 401.09 104.58L357.64 96.6802C356.05 96.4102 354.64 97.7002 354.77 99.3002V99.3102Z" fill="#FBF8FF"/>
<path d="M427 41.4801H437.07C438.18 41.4801 439.08 40.5801 439.08 39.4701V35.5401C439.08 33.9301 437.78 32.6301 436.17 32.6301H427V41.4801Z" fill="#FBF8FF"/>
<path d="M402.84 32.6301H387.9V41.4801H402.62L403.91 37.3401L402.84 32.6301Z" fill="#FBF8FF"/>
<path d="M405.74 37.3301L404.59 41.4801H420.83V32.6301H404.59L405.74 37.3301Z" fill="#FBF8FF"/>
<path d="M453.96 99.3102L453.92 99.8002C453.8 101.33 452.65 102.57 451.14 102.83L408.96 110.36C407.9 110.55 406.85 109.96 406.46 108.95L405.94 107.61C405.43 106.29 406.25 104.83 407.64 104.58L451.09 96.6802C452.68 96.4102 454.09 97.7002 453.96 99.3002V99.3102Z" fill="#FBF8FF"/>
<path d="M439.08 43.8601H426.5C425.99 43.8601 425.57 43.4401 425.57 42.9301V41.4801V32.6301V32.2401C425.57 31.7401 425.17 31.3401 424.67 31.3401H423.46C422.87 31.3401 422.39 31.8201 422.39 32.4101V42.9901C422.39 43.4701 422 43.8601 421.52 43.8601H405.82V68.5601C405.82 70.1801 404.51 71.4901 402.89 71.4901V43.8601H387.23C386.75 43.8601 386.36 43.4701 386.36 42.9901V32.4101C386.36 31.8201 385.88 31.3401 385.29 31.3401H384.08C383.58 31.3401 383.18 31.7401 383.18 32.2401V42.9301C383.18 43.4401 382.76 43.8601 382.25 43.8601H369.67C369.67 43.8601 359.07 61.3101 358.39 89.9801C358.35 91.6401 359.49 93.0901 361.12 93.4001L399.71 100.84C400.69 101.03 401.67 100.54 402.12 99.6501L403.45 97.0101C403.84 96.2401 404.93 96.2401 405.31 97.0101L406.64 99.6501C407.09 100.54 408.07 101.02 409.05 100.84L447.64 93.4001C449.27 93.0901 450.41 91.6301 450.37 89.9801C449.69 61.3201 439.09 43.8601 439.09 43.8601H439.08ZM380.89 49.9401C379.24 58.6301 371.55 61.2901 366.49 62.1001C365.06 62.3301 364.92 61.2101 365.49 60.0201C368.63 53.4901 368.28 50.1801 369.66 48.6301C370.49 47.7001 371.78 47.1701 373.13 47.1701H378.28C379.94 47.1701 381.17 48.4901 380.9 49.9301L380.89 49.9401ZM442.25 62.1001C437.2 61.2901 429.5 58.6201 427.85 49.9401C427.58 48.5001 428.81 47.1801 430.47 47.1801H435.62C436.97 47.1801 438.25 47.7101 439.09 48.6401C440.47 50.1801 440.12 53.5001 443.26 60.0301C443.83 61.2101 443.69 62.3401 442.26 62.1101L442.25 62.1001Z" fill="#FBF8FF"/>
</g>
<defs>
<clipPath id="clip0_378_112">
<rect width="475.23" height="141.73" fill="white"/>
</clipPath>
</defs>
</svg>
