<svg width="63" height="63" viewBox="0 0 63 63" fill="none" xmlns="http://www.w3.org/2000/svg">
<path d="M28.875 52.5V13.125H52.5V21H36.75V28.875H49.875V36.75H36.75V52.5H28.875ZM15.75 7.875C17.8386 7.875 19.8416 8.70469 21.3185 10.1815C22.7953 11.6584 23.625 13.6614 23.625 15.75C23.625 17.8386 22.7953 19.8416 21.3185 21.3185C19.8416 22.7953 17.8386 23.625 15.75 23.625C13.6614 23.625 11.6584 22.7953 10.1815 21.3185C8.70469 19.8416 7.875 17.8386 7.875 15.75C7.875 13.6614 8.70469 11.6584 10.1815 10.1815C11.6584 8.70469 13.6614 7.875 15.75 7.875ZM15.75 13.125C15.0538 13.125 14.3861 13.4016 13.8938 13.8938C13.4016 14.3861 13.125 15.0538 13.125 15.75C13.125 16.4462 13.4016 17.1139 13.8938 17.6062C14.3861 18.0984 15.0538 18.375 15.75 18.375C16.4462 18.375 17.1139 18.0984 17.6062 17.6062C18.0984 17.1139 18.375 16.4462 18.375 15.75C18.375 15.0538 18.0984 14.3861 17.6062 13.8938C17.1139 13.4016 16.4462 13.125 15.75 13.125Z" fill="white"/>
</svg>
