<svg width="476" height="142" viewBox="0 0 476 142" fill="none" xmlns="http://www.w3.org/2000/svg">
<g clip-path="url(#clip0_378_200)">
<path d="M286.4 112.7L286.8 110.58C288.52 95.8701 280.97 64.4701 280.57 63.8101C280.17 63.1501 276.59 45.1301 272.62 34.3901C268.64 23.6601 253.27 19.8101 253.27 19.8101C247.97 25.1101 237.71 24.4001 237.71 24.4001H237.53C237.53 24.4001 227.27 25.1101 221.97 19.8101C221.97 19.8101 206.6 23.6501 202.62 34.3901C198.64 45.1201 195.07 63.1401 194.67 63.8101C194.27 64.4701 186.72 95.8801 188.44 110.58L188.84 112.7L188.19 119.86C188.19 119.86 195.47 124.5 201.43 119.86L201.83 114.16C201.83 114.16 205.54 110.45 205.94 105.28C206.03 104.15 206.19 102.66 206.39 101.02C206.82 105.33 210.05 110.18 210.05 110.18V117.87H265.21V110.18C265.21 110.18 268.44 105.33 268.87 101.02C269.07 102.66 269.23 104.15 269.32 105.28C269.72 110.45 273.43 114.16 273.43 114.16L273.83 119.86C279.79 124.5 287.07 119.86 287.07 119.86L286.42 112.7H286.4ZM210.04 82.2201L209.24 85.1401C208.31 80.5001 210.04 55.7201 210.04 55.7201V82.2201ZM239.96 102.09C238.67 102.09 237.62 101.04 237.62 99.7501C237.62 98.4601 238.67 97.4101 239.96 97.4101C241.25 97.4101 242.3 98.4601 242.3 99.7501C242.3 101.04 241.25 102.09 239.96 102.09ZM239.96 89.8101C238.67 89.8101 237.62 88.7601 237.62 87.4701C237.62 86.1801 238.67 85.1301 239.96 85.1301C241.25 85.1301 242.3 86.1801 242.3 87.4701C242.3 88.7601 241.25 89.8101 239.96 89.8101ZM239.96 76.6001C238.67 76.6001 237.62 75.5501 237.62 74.2601C237.62 72.9701 238.67 71.9201 239.96 71.9201C241.25 71.9201 242.3 72.9701 242.3 74.2601C242.3 75.5501 241.25 76.6001 239.96 76.6001ZM239.96 63.8801C238.67 63.8801 237.62 62.8301 237.62 61.5401C237.62 60.2501 238.67 59.2001 239.96 59.2001C241.25 59.2001 242.3 60.2501 242.3 61.5401C242.3 62.8301 241.25 63.8801 239.96 63.8801ZM238.16 54.6501C238.09 54.6701 238.02 54.6701 237.95 54.6701C228.58 54.5001 223.11 31.9201 221.66 25.0201C221.53 24.3901 222.21 23.9201 222.75 24.2601C224.7 25.4601 228.93 27.1101 237.43 27.1101C246.44 27.1101 250.66 25.2501 252.44 24.0501C252.93 23.7201 253.59 24.0801 253.58 24.6701C253.03 50.3101 239.46 54.3201 238.15 54.6401L238.16 54.6501ZM265.63 85.1301L264.83 82.2101V55.7101C264.83 55.7101 266.55 80.4901 265.63 85.1301Z" fill="#4D4637"/>
<path d="M238.32 99.3302C238.12 99.5302 238.12 99.8602 238.32 100.06C238.52 100.26 238.85 100.26 239.05 100.06C239.25 99.8602 239.25 99.5302 239.05 99.3302C238.85 99.1302 238.52 99.1302 238.32 99.3302Z" fill="#4D4637"/>
<path d="M239.79 98.39C239.59 98.59 239.59 98.92 239.79 99.12C239.99 99.32 240.32 99.32 240.52 99.12C240.72 98.92 240.72 98.59 240.52 98.39C240.32 98.19 239.99 98.19 239.79 98.39Z" fill="#4D4637"/>
<path d="M239.39 100.39C239.19 100.59 239.19 100.92 239.39 101.12C239.59 101.32 239.92 101.32 240.12 101.12C240.32 100.92 240.32 100.59 240.12 100.39C239.92 100.19 239.59 100.19 239.39 100.39Z" fill="#4D4637"/>
<path d="M240.86 99.4601C240.66 99.6601 240.66 99.9901 240.86 100.19C241.06 100.39 241.39 100.39 241.59 100.19C241.79 99.9901 241.79 99.6601 241.59 99.4601C241.39 99.2601 241.06 99.2601 240.86 99.4601Z" fill="#4D4637"/>
<path d="M238.32 87.0501C238.12 87.2501 238.12 87.5801 238.32 87.7801C238.52 87.9801 238.85 87.9801 239.05 87.7801C239.25 87.5801 239.25 87.2501 239.05 87.0501C238.85 86.8501 238.52 86.8501 238.32 87.0501Z" fill="#4D4637"/>
<path d="M239.79 86.11C239.59 86.31 239.59 86.64 239.79 86.84C239.99 87.04 240.32 87.04 240.52 86.84C240.72 86.64 240.72 86.31 240.52 86.11C240.32 85.91 239.99 85.91 239.79 86.11Z" fill="#4D4637"/>
<path d="M239.39 88.11C239.19 88.31 239.19 88.64 239.39 88.84C239.59 89.04 239.92 89.04 240.12 88.84C240.32 88.64 240.32 88.31 240.12 88.11C239.92 87.91 239.59 87.91 239.39 88.11Z" fill="#4D4637"/>
<path d="M240.86 87.18C240.66 87.38 240.66 87.71 240.86 87.91C241.06 88.11 241.39 88.11 241.59 87.91C241.79 87.71 241.79 87.38 241.59 87.18C241.39 86.98 241.06 86.98 240.86 87.18Z" fill="#4D4637"/>
<path d="M238.32 73.8399C238.12 74.0399 238.12 74.3699 238.32 74.5699C238.52 74.7699 238.85 74.7699 239.05 74.5699C239.25 74.3699 239.25 74.0399 239.05 73.8399C238.85 73.6399 238.52 73.6399 238.32 73.8399Z" fill="#4D4637"/>
<path d="M239.79 72.91C239.59 73.11 239.59 73.44 239.79 73.64C239.99 73.84 240.32 73.84 240.52 73.64C240.72 73.44 240.72 73.11 240.52 72.91C240.32 72.71 239.99 72.71 239.79 72.91Z" fill="#4D4637"/>
<path d="M239.39 74.91C239.19 75.11 239.19 75.44 239.39 75.64C239.59 75.84 239.92 75.84 240.12 75.64C240.32 75.44 240.32 75.11 240.12 74.91C239.92 74.71 239.59 74.71 239.39 74.91Z" fill="#4D4637"/>
<path d="M240.86 73.9701C240.66 74.1701 240.66 74.5001 240.86 74.7001C241.06 74.9001 241.39 74.9001 241.59 74.7001C241.79 74.5001 241.79 74.1701 241.59 73.9701C241.39 73.7701 241.06 73.7701 240.86 73.9701Z" fill="#4D4637"/>
<path d="M238.32 61.12C238.12 61.32 238.12 61.65 238.32 61.85C238.52 62.05 238.85 62.05 239.05 61.85C239.25 61.65 239.25 61.32 239.05 61.12C238.85 60.92 238.52 60.92 238.32 61.12Z" fill="#4D4637"/>
<path d="M239.79 60.18C239.59 60.38 239.59 60.71 239.79 60.91C239.99 61.11 240.32 61.11 240.52 60.91C240.72 60.71 240.72 60.38 240.52 60.18C240.32 59.98 239.99 59.98 239.79 60.18Z" fill="#4D4637"/>
<path d="M239.39 62.19C239.19 62.39 239.19 62.72 239.39 62.92C239.59 63.12 239.92 63.12 240.12 62.92C240.32 62.72 240.32 62.39 240.12 62.19C239.92 61.99 239.59 61.99 239.39 62.19Z" fill="#4D4637"/>
<path d="M240.86 61.2501C240.66 61.4501 240.66 61.7801 240.86 61.9801C241.06 62.1801 241.39 62.1801 241.59 61.9801C241.79 61.7801 241.79 61.4501 241.59 61.2501C241.39 61.0501 241.06 61.0501 240.86 61.2501Z" fill="#4D4637"/>
<path d="M373.26 124.33V128.49C373.26 129.94 374.65 131.12 376.37 131.12H394.38C396.25 131.12 397.81 129.9 397.96 128.32L398.3 124.72C398.46 123.05 396.88 121.64 394.91 121.67L375.93 122.01C374.45 122.04 373.26 123.06 373.26 124.32V124.33Z" fill="#4D4637"/>
<path d="M435.47 124.33V128.49C435.47 129.94 434.08 131.12 432.36 131.12H414.35C412.48 131.12 410.92 129.9 410.77 128.32L410.43 124.72C410.27 123.05 411.85 121.64 413.82 121.67L432.8 122.01C434.28 122.04 435.47 123.06 435.47 124.32V124.33Z" fill="#4D4637"/>
<path d="M386.39 10.6101H374.1V15.1901H386.39V10.6101Z" fill="#4D4637"/>
<path d="M434.62 10.6101H422.33V15.1901H434.62V10.6101Z" fill="#4D4637"/>
<path d="M413.85 10.6101H394.53V15.1901H413.85V10.6101Z" fill="#4D4637"/>
<path d="M432.74 16.8201H419.49V11.5801C419.49 11.0501 418.98 10.6101 418.35 10.6101C417.56 10.6101 416.91 11.1601 416.91 11.8301V16.7201H407.06V30.9101C407.06 32.4301 405.61 33.6601 403.82 33.6601V16.7201H391.81V11.8301C391.81 11.1601 391.17 10.6101 390.37 10.6101C389.74 10.6101 389.23 11.0401 389.23 11.5801V16.8201H375.98C374.94 16.8201 374.1 17.5301 374.1 18.4201V116.89C374.1 117.95 375.11 118.81 376.37 118.81H393.63C395.65 118.81 397.33 117.51 397.52 115.81L404.11 56.0701C404.14 55.8101 404.58 55.8101 404.61 56.0701L411.2 115.81C411.39 117.51 413.07 118.81 415.09 118.81H432.35C433.6 118.81 434.62 117.95 434.62 116.89V18.4101C434.62 17.5301 433.78 16.8101 432.74 16.8101V16.8201ZM380.62 32.6901C379.38 33.5801 377.47 32.8401 377.39 31.4701L376.74 20.9301C376.68 19.9701 377.58 19.1601 378.72 19.1601H382.9C384.02 19.1601 384.93 19.9501 384.88 20.9001C384.73 23.9801 384 30.2701 380.63 32.6901H380.62ZM412.37 57.9401C412.25 58.1201 412.03 58.2301 411.81 58.2301C411.71 58.2301 411.61 58.2101 411.51 58.1701L394.15 50.3001C393.84 50.1601 393.72 49.8301 393.89 49.5701C394.06 49.3101 394.44 49.2001 394.75 49.3501L412.11 57.2201C412.42 57.3601 412.54 57.6901 412.37 57.9501V57.9401ZM416.51 56.2401C416.39 56.4201 416.17 56.5301 415.95 56.5301C415.85 56.5301 415.75 56.5101 415.65 56.4701L393.52 46.4401C393.21 46.3001 393.09 45.9701 393.26 45.7101C393.43 45.4501 393.81 45.3501 394.12 45.4901L416.25 55.5201C416.56 55.6601 416.68 55.9901 416.51 56.2501V56.2401ZM431.34 31.4701C431.25 32.8401 429.35 33.5801 428.11 32.6901C424.73 30.2801 424.01 23.9801 423.86 20.9001C423.81 19.9501 424.72 19.1601 425.84 19.1601H430.02C431.16 19.1601 432.06 19.9701 432 20.9301L431.35 31.4701H431.34Z" fill="#4D4637"/>
<path d="M65.7702 64.3899C66.5157 64.3899 67.1202 63.7855 67.1202 63.0399C67.1202 62.2944 66.5157 61.6899 65.7702 61.6899C65.0246 61.6899 64.4202 62.2944 64.4202 63.0399C64.4202 63.7855 65.0246 64.3899 65.7702 64.3899Z" fill="#4D4637"/>
<path d="M76.4202 68.4001L76.3602 68.4801C74.8902 70.3601 72.9402 71.3901 70.8802 71.3901C68.8202 71.3901 66.8702 70.3601 65.4002 68.4801L65.3102 68.3601C65.1602 68.1701 64.8902 68.1401 64.7002 68.2901C64.5102 68.4401 64.4802 68.7101 64.6302 68.9001L64.7202 69.0201C66.3602 71.1101 68.5502 72.2701 70.8802 72.2701C73.2202 72.2701 75.4102 71.1201 77.0402 69.0201L77.1002 68.9401C77.2502 68.7501 77.2202 68.4801 77.0302 68.3301C76.8402 68.1801 76.5702 68.2201 76.4202 68.4001Z" fill="#4D4637"/>
<path d="M137.49 106.15L103.18 30.86C100.49 24.95 95.2501 21.26 89.5501 21.26H52.18C46.4801 21.26 41.25 24.95 38.55 30.86L4.25005 106.15C3.37005 108.07 3.94005 110.47 5.54005 111.58L15.9601 118.84C17.2501 119.74 18.9101 119.23 19.6701 117.71L37.51 81.72C37.93 80.87 39.04 81.2 39.07 82.19L40 117.36C40.05 119.09 41.2501 120.47 42.7201 120.47H99.0201C100.49 120.47 101.7 119.09 101.74 117.36L102.67 82.19C102.7 81.2 103.8 80.87 104.23 81.72L122.07 117.71C122.83 119.23 124.49 119.74 125.78 118.84L136.2 111.58C137.8 110.47 138.36 108.07 137.49 106.15ZM57.2401 24.1H84.3701C85.5501 24.1 86.2701 25.79 85.6101 27.05C84.2301 29.66 80.4801 33.06 70.2401 33.06C60.8201 33.06 57.36 29.66 56.09 27.05C55.48 25.8 56.1501 24.1 57.2401 24.1ZM70.8701 80.1C62.2401 80.1 55.2401 73.1 55.2401 64.47C55.2401 55.84 62.2401 48.84 70.8701 48.84C79.5001 48.84 86.5001 55.84 86.5001 64.47C86.5001 73.1 79.5001 80.1 70.8701 80.1Z" fill="#4D4637"/>
<path d="M75.9601 64.3899C76.7057 64.3899 77.3101 63.7855 77.3101 63.0399C77.3101 62.2944 76.7057 61.6899 75.9601 61.6899C75.2145 61.6899 74.6101 62.2944 74.6101 63.0399C74.6101 63.7855 75.2145 64.3899 75.9601 64.3899Z" fill="#4D4637"/>
<path d="M65.7702 61.6899C66.5102 61.6899 67.1202 62.2899 67.1202 63.0399C67.1202 63.7899 66.5202 64.3899 65.7702 64.3899C65.0202 64.3899 64.4202 63.7899 64.4202 63.0399C64.4202 62.2899 65.0202 61.6899 65.7702 61.6899ZM77.1102 68.9399L77.0502 69.0199C75.4102 71.1099 73.2202 72.2699 70.8902 72.2699C68.5502 72.2699 66.3602 71.1199 64.7302 69.0199L64.6402 68.8999C64.4902 68.7099 64.5302 68.4399 64.7102 68.2899C64.9002 68.1399 65.1702 68.1799 65.3202 68.3599L65.4102 68.4799C66.8802 70.3599 68.8302 71.3899 70.8902 71.3899C72.9502 71.3899 74.9002 70.3599 76.3702 68.4799L76.4302 68.3999C76.5802 68.2099 76.8502 68.1799 77.0402 68.3299C77.2302 68.4799 77.2602 68.7499 77.1102 68.9399ZM75.9702 64.3899C75.2302 64.3899 74.6202 63.7899 74.6202 63.0399C74.6202 62.2899 75.2202 61.6899 75.9702 61.6899C76.7202 61.6899 77.3202 62.2899 77.3202 63.0399C77.3202 63.7899 76.7202 64.3899 75.9702 64.3899Z" fill="#4D4637"/>
</g>
<defs>
<clipPath id="clip0_378_200">
<rect width="475.23" height="141.73" fill="white"/>
</clipPath>
</defs>
</svg>
