<svg width="48" height="48" viewBox="0 0 48 48" fill="none" xmlns="http://www.w3.org/2000/svg">
<path d="M24 44C35.0457 44 44 35.0457 44 24C44 12.9543 35.0457 4 24 4C12.9543 4 4 12.9543 4 24C4 35.0457 12.9543 44 24 44Z" stroke="#3E4245" stroke-width="3.5" stroke-linecap="round" stroke-linejoin="round"/>
<path d="M16 18.0999V17.8999" stroke="#3E4245" stroke-width="3.5" stroke-linecap="round" stroke-linejoin="round"/>
<path d="M32 18.0999V17.8999" stroke="#3E4245" stroke-width="3.5" stroke-linecap="round" stroke-linejoin="round"/>
<path d="M24 36C26.1217 36 28.1566 35.1571 29.6569 33.6569C31.1571 32.1566 32 30.1217 32 28H16C16 30.1217 16.8429 32.1566 18.3431 33.6569C19.8434 35.1571 21.8783 36 24 36Z" stroke="#3E4245" stroke-width="3.5" stroke-linecap="round" stroke-linejoin="round"/>
</svg>
