<svg width="476" height="142" viewBox="0 0 476 142" fill="none" xmlns="http://www.w3.org/2000/svg">
<g clip-path="url(#clip0_378_94)">
<path d="M71.9499 129.5H103.44C104.04 129.5 104.61 129.27 105.03 128.87L106.06 127.88C106.37 127.58 106.55 127.18 106.55 126.75V124.07C106.55 123.42 106 122.89 105.32 122.89H71.9499H69.7799H36.4099C35.7299 122.89 35.1799 123.42 35.1799 124.07V126.75C35.1799 127.17 35.3599 127.58 35.6699 127.88L36.6999 128.87C37.1199 129.28 37.6999 129.5 38.2899 129.5H71.9499Z" fill="#FBF8FF"/>
<path d="M106.55 59.43C106.55 58.57 106.14 57.75 105.41 57.26C99.1299 53.02 95.7899 46.51 95.7899 46.51C90.7999 32.08 96.4299 21.43 99.1799 17.43C99.8299 16.47 99.4499 15.18 98.3799 14.68L93.5199 12.38C92.8399 12.06 92.0199 12.32 91.6399 12.96C84.7399 24.49 71.9499 23.45 71.9499 23.45H69.7799C69.7799 23.45 56.9899 24.49 50.0899 12.96C49.7099 12.32 48.8999 12.06 48.2099 12.38L43.3499 14.68C42.2799 15.19 41.8999 16.47 42.5499 17.43C45.2899 21.44 50.9199 32.08 45.9399 46.51C45.9399 46.51 42.5999 53.02 36.3199 57.26C35.5899 57.75 35.1799 58.58 35.1799 59.43V117.96C35.1799 118.71 35.8099 119.31 36.5899 119.31H105.14C105.92 119.31 106.55 118.71 106.55 117.96V59.43ZM92.2699 12.72C92.8999 12.49 92.4999 14.4 91.8799 15.56C89.0999 20.77 80.6399 35.13 71.9499 35.13H69.7799C61.0899 35.13 52.6299 20.77 49.8499 15.56C49.2299 14.39 48.7799 14.2 49.2999 12.83C49.2999 12.83 49.4799 12.67 49.6799 12.9C49.8799 13.13 51.8599 16.12 53.0999 17.33C54.3399 18.54 57.7099 24.47 70.8599 24.23C84.0099 23.99 89.1399 17.42 91.1399 14.52L92.2699 12.72Z" fill="#FBF8FF"/>
<path d="M423.275 38.7489C423.404 37.4741 421.821 36.2698 419.738 36.059C417.655 35.8482 415.863 36.7107 415.734 37.9855C415.605 39.2603 417.188 40.4646 419.271 40.6754C421.353 40.8862 423.146 40.0237 423.275 38.7489Z" fill="#FBF8FF"/>
<path d="M361.11 96.7401C360.48 96.7301 360 96.2501 360.1 95.7301C360.24 95.0001 360.71 94.0401 362.16 93.6401C362.16 93.6401 363.35 93.5101 364.54 93.7501C365.26 93.9001 365.59 94.6001 365.15 95.1001C364.57 95.7601 363.68 96.5601 362.76 96.6601C362.12 96.7301 361.56 96.7401 361.12 96.7301L361.11 96.7401Z" fill="#FBF8FF"/>
<path d="M400.14 80.0101C397.69 78.8901 393.25 78.6101 392.68 78.5801C392.68 78.5801 392.62 78.5501 392.62 78.5101C392.65 49.1001 415.65 39.4401 415.65 39.4401C415.65 39.4401 397.95 48.2001 394.26 75.6501L394.3 78.5801H392.67C393.23 78.6101 397.67 78.8901 400.13 80.0101C402.75 81.2001 413.13 84.7101 424.82 84.4501C424.82 84.4501 432.53 52.8301 423.13 40.7201L422.35 39.9601C422.35 39.9601 423.54 39.8301 424.82 41.0801C426.1 42.3301 432.01 51.1901 429.64 73.6001C429.64 73.6001 428.64 79.3101 426.08 83.8401L424.83 84.4601C432.34 86.5101 435.09 85.5101 435.09 85.5101C435.09 85.5101 446.99 87.4301 451.76 85.1601C452.48 84.8201 453.01 84.1501 453.17 83.3601C453.77 80.4601 454.04 77.5001 453.91 74.3801C453.19 57.0401 440.39 42.2301 423.28 39.3101C400.13 35.3601 380.02 52.8201 379.52 75.1201C379.51 75.6401 379.24 76.1201 378.79 76.3801C374.82 78.6801 355.81 89.8201 355.06 92.5401C354.45 94.7701 354.44 97.8001 357.1 98.8401C358.13 99.2401 359.21 98.3501 359.05 97.2501V97.1801C358.7 94.7701 360.6 92.6201 363.04 92.6001C368.83 92.5501 380.68 93.6001 389.17 102.09C389.17 102.09 397.16 109.37 409.09 103.28C421.02 97.2001 435.09 85.5101 435.09 85.5101C435.09 85.5101 432.35 86.5101 424.83 84.4601" fill="#FBF8FF"/>
<path d="M217.22 53.06C217.22 53.06 218.61 56.49 237.38 56.49H237.82C256.58 56.49 257.98 53.06 257.98 53.06C264.8 53.06 266.14 37.69 266.4 32.62C266.45 31.6 266.36 30.58 266.14 29.58L265.21 25.38C264.86 23.78 264.68 22.15 264.68 20.52V3.09999C264.68 2.51999 264.53 1.94999 264.24 1.42999C263.74 0.54999 262.73 -0.0100098 261.62 -0.0100098H259.54C258.67 -0.0100098 257.81 0.20999 257.07 0.60999L256.79 0.76999C256.28 1.04999 255.85 1.42999 255.51 1.87999C248.3 11.44 237.84 14.35 237.84 14.35H237.4C237.4 14.35 226.94 11.45 219.73 1.87999C219.4 1.43999 218.96 1.04999 218.45 0.76999L218.17 0.60999C217.43 0.19999 216.57 -0.0100098 215.7 -0.0100098H213.62C212.51 -0.0100098 211.49 0.54999 211 1.42999C210.71 1.94999 210.56 2.51999 210.56 3.09999V20.51C210.56 22.14 210.38 23.77 210.03 25.37L209.1 29.57C208.88 30.57 208.79 31.59 208.84 32.61C209.1 37.68 210.44 53.05 217.26 53.05L217.22 53.06ZM216.31 2.22999C217 2.22999 217.63 2.53999 218 3.04999C220.15 6.05999 228.16 16.3 237.38 16.3H237.82C247.04 16.3 255.05 6.04999 257.2 3.04999C257.57 2.53999 258.2 2.22999 258.89 2.22999C259.7 2.22999 260.31 2.86999 260.16 3.57999C259.02 8.98999 253.73 28.9 237.82 28.9H237.38C221.47 28.9 216.18 8.98999 215.04 3.57999C214.89 2.87999 215.5 2.22999 216.31 2.22999Z" fill="#FBF8FF"/>
<path d="M260.42 61.98L260.11 60.3C259.88 59.08 258.49 58.32 257.16 58.71C253.78 59.7 247.08 61.21 237.83 61.21H237.39C228.13 61.21 221.44 59.7 218.06 58.71C216.73 58.32 215.34 59.08 215.11 60.3L214.8 61.98C214.8 61.98 176.16 131.61 188.43 131.61C188.43 131.61 196.71 137.57 205.55 135.58C206.1 135.46 206.63 135.23 207.08 134.92C208.33 134.09 211.92 132.32 218.97 133.09C224.86 133.73 226.51 136.2 226.95 137.85C227.4 139.56 228.79 140.96 230.73 141.34C231.95 141.58 233.56 141.74 235.72 141.74H239.51C241.66 141.74 243.28 141.58 244.5 141.34C246.43 140.96 247.83 139.56 248.28 137.85C248.71 136.2 250.36 133.73 256.26 133.09C263.31 132.32 266.91 134.09 268.15 134.92C268.61 135.22 269.13 135.45 269.68 135.58C278.52 137.57 286.8 131.61 286.8 131.61C299.08 131.61 260.43 61.98 260.43 61.98H260.42ZM220.22 90.62C218.69 96.3 207.8 120.25 207.8 120.25L206.41 119.63C208.29 117.96 218.83 89.75 218.83 89.75L223.07 68.51C223.07 68.51 221.76 84.93 220.23 90.61L220.22 90.62ZM232.29 128.47C232.29 128.47 229.15 94.13 233.87 70.3C233.87 70.3 231.93 122.55 233.95 128.33L232.28 128.47H232.29ZM249.24 127.53C250.64 121.6 243.1 69.75 243.1 69.75C250.35 93.08 250.91 127.53 250.91 127.53H249.24ZM271.34 120.25C271.34 120.25 260.46 96.3 258.92 90.62C257.39 84.94 256.08 68.52 256.08 68.52L260.32 89.76C260.32 89.76 270.85 117.97 272.74 119.64L271.35 120.26L271.34 120.25Z" fill="#FBF8FF"/>
</g>
<defs>
<clipPath id="clip0_378_94">
<rect width="475.2" height="141.73" fill="white"/>
</clipPath>
</defs>
</svg>
