<svg width="55" height="79" viewBox="0 0 55 79" fill="none" xmlns="http://www.w3.org/2000/svg">
<path d="M26.6739 78.3225C42.6964 78.3225 53.348 67.914 53.348 52.316C53.348 44.8815 50.4043 37.113 47.7947 31.2866C43.6373 22.0007 37.2647 11.8348 31.5595 3.03458C30.2851 1.09245 28.7982 0 26.6739 0C24.5194 0 23.0628 1.09245 21.8186 3.03458C16.0833 11.8348 9.71065 22.0007 5.55328 31.2866C2.94354 37.113 0 44.8815 0 52.316C0 67.914 10.6817 78.3225 26.6739 78.3225ZM26.6739 72.8603C13.9591 72.8603 5.46223 64.6366 5.46223 52.316C5.46223 46.0648 7.95058 39.6316 10.439 33.9568C14.7784 24.0035 20.5137 15.355 26.067 6.97952C26.4312 6.40297 26.9774 6.40297 27.3416 6.97952C32.8341 15.355 38.5999 24.0035 42.8785 33.9267C45.3974 39.6316 47.8858 46.0648 47.8858 52.316C47.8858 64.6366 39.419 72.8603 26.6739 72.8603Z" fill="black" fill-opacity="0.85"/>
<path d="M3.10742 62.1482H49.7186V62.1482C49.7186 69.0129 44.1536 74.5778 37.2889 74.5778H15.5371C8.67237 74.5778 3.10742 69.0129 3.10742 62.1482V62.1482Z" fill="#252525"/>
</svg>
