<svg width="57" height="82" viewBox="0 0 57 82" fill="none" xmlns="http://www.w3.org/2000/svg">
<path d="M27.6533 81.1983C44.2641 81.1983 55.3068 70.4076 55.3068 54.2369C55.3068 46.5295 52.255 38.4757 49.5496 32.4354C45.2396 22.8085 38.6329 12.2694 32.7182 3.146C31.3971 1.13256 29.8555 0 27.6533 0C25.4197 0 23.9096 1.13256 22.6197 3.146C16.6738 12.2694 10.0672 22.8085 5.75718 32.4354C3.05162 38.4757 0 46.5295 0 54.2369C0 70.4076 11.0739 81.1983 27.6533 81.1983ZM27.6533 75.5356C14.4716 75.5356 5.66279 67.0098 5.66279 54.2369C5.66279 47.7562 8.24251 41.0867 10.8223 35.2036C15.321 24.8849 21.2669 15.9188 27.0241 7.23579C27.4017 6.63807 27.9679 6.63807 28.3455 7.23579C34.0397 15.9188 40.0172 24.8849 44.4529 35.1724C47.0642 41.0867 49.644 47.7562 49.644 54.2369C49.644 67.0098 40.8664 75.5356 27.6533 75.5356Z" fill="black" fill-opacity="0.85"/>
<path d="M3.2215 41.8795H51.544V53.1548C51.544 66.4987 40.7267 77.3161 27.3828 77.3161V77.3161C14.0389 77.3161 3.2215 66.4987 3.2215 53.1548V41.8795Z" fill="#252525"/>
</svg>
