<svg width="476" height="142" viewBox="0 0 476 142" fill="none" xmlns="http://www.w3.org/2000/svg">
<g clip-path="url(#clip0_378_153)">
<path d="M70.1399 33.8301L61.7999 21.9401C61.2499 21.1601 60.1699 21.0001 59.4199 21.5901L53.9399 25.8701L65.1399 42.6201C65.4599 43.1001 66.1699 43.0701 66.4599 42.5701L70.2399 35.9701C70.6299 35.3001 70.5899 34.4601 70.1399 33.8301Z" fill="#4D4637"/>
<path d="M87.0301 25.2701L82.9801 22.1001C81.8701 21.2301 80.2601 21.4701 79.4501 22.6301L71.2501 34.3201C71.0201 34.6501 71.0001 35.0901 71.2001 35.4401L75.0701 42.1901C75.4601 42.8601 76.4101 42.9001 76.8401 42.2501L87.2601 26.6701C87.5601 26.2201 87.4701 25.6001 87.0301 25.2701Z" fill="#4D4637"/>
<path d="M69.34 108.82C69.34 108.34 69.59 107.94 69.96 107.68C70.14 107.49 70.39 107.36 70.67 107.36C70.69 107.36 70.71 107.37 70.73 107.37L70.75 97.4602C69.97 97.4602 69.34 96.8202 69.34 96.0402C69.34 95.2602 69.98 94.6202 70.76 94.6202L70.78 86.0202C70.78 86.0202 70.77 86.0202 70.76 86.0202C69.98 86.0202 69.34 85.3802 69.34 84.6002C69.34 84.1202 69.59 83.7202 69.96 83.4602C70.14 83.2702 70.39 83.1402 70.67 83.1402C70.71 83.1402 70.74 83.1602 70.78 83.1602L70.8 74.5702C70.8 74.5702 70.77 74.5702 70.76 74.5702C70.76 74.5702 70.75 74.5702 70.74 74.5702C70.72 74.5702 70.69 74.5802 70.67 74.5802C70.51 74.5802 70.3601 74.5302 70.2301 74.4602C69.7101 74.2502 69.34 73.7402 69.34 73.1502C69.34 72.3702 69.98 71.7302 70.76 71.7302C70.78 71.7302 70.79 71.7302 70.81 71.7302L70.83 62.4302C70.78 62.4302 70.73 62.4602 70.67 62.4602C70.39 62.4602 70.13 62.3302 69.96 62.1402C69.6 61.8802 69.34 61.4802 69.34 61.0002C69.34 60.2202 69.98 59.5802 70.76 59.5802C70.79 59.5802 70.81 59.5902 70.83 59.6002L70.85 51.2602C70.85 51.2602 70.79 51.2802 70.76 51.2802C69.98 51.2802 69.34 50.6402 69.34 49.8602C69.34 49.3802 69.59 48.9802 69.96 48.7202C70.14 48.5302 70.39 48.4002 70.67 48.4002C70.74 48.4002 70.79 48.4302 70.86 48.4402V46.1502C69.69 45.8502 69.0901 45.2402 68.8301 44.5102L68.68 44.3902L66.93 45.8502C66.45 46.3902 65.5901 46.3302 65.1901 45.7302L53.03 27.6302C52.31 26.5602 51.03 26.0102 49.76 26.2402L46.94 26.7402C43.74 27.3102 40.9501 29.2602 39.3101 32.0702L6.73005 87.9302C6.43005 88.4402 6.59005 89.1002 7.09005 89.4202L22.56 99.3202C23.09 99.6602 23.8 99.4902 24.11 98.9402L40.9901 69.6502C41.5501 68.6702 43.05 69.0702 43.05 70.2002V119.39C43.05 120 43.5401 120.49 44.1501 120.49H69.75C70.16 120.49 70.51 120.25 70.7 119.92L70.72 110.23C69.95 110.21 69.3301 109.59 69.3301 108.82H69.34Z" fill="#4D4637"/>
<path d="M21.3801 101.56L5.83006 91.7401C5.30006 91.4101 4.60006 91.5801 4.29006 92.1201L0.150063 99.2201C-0.149937 99.7401 0.0100631 100.4 0.520063 100.71L16.1601 110.47C16.6901 110.8 17.3901 110.63 17.7001 110.08L21.7501 103.05C22.0501 102.54 21.8801 101.88 21.3801 101.56ZM16.0301 105.34C15.2501 105.34 14.6101 104.7 14.6101 103.92C14.6101 103.14 15.2501 102.5 16.0301 102.5C16.8101 102.5 17.4501 103.14 17.4501 103.92C17.4501 104.7 16.8101 105.34 16.0301 105.34Z" fill="#4D4637"/>
<path d="M135 87.93L102.44 32.09C100.8 29.28 98.0101 27.33 94.8101 26.76L91.9901 26.26C90.7201 26.03 89.4401 26.58 88.7201 27.65L76.5601 45.75C76.1601 46.35 75.2901 46.41 74.8201 45.87L71.3601 39.55C71.0001 38.54 68.0301 42.18 68.8501 44.53L70.8801 46.14V48.46C70.8801 48.46 70.9601 48.49 71.0001 48.5C71.6801 48.61 72.2001 49.17 72.2001 49.88C72.2001 50.63 71.6201 51.22 70.8801 51.28V59.63C71.6101 59.69 72.2001 60.28 72.2001 61.03C72.2001 61.74 71.6701 62.3 71.0001 62.41C70.9601 62.42 70.9301 62.45 70.8801 62.45V71.76C71.6101 71.82 72.2001 72.41 72.2001 73.16C72.2001 73.91 71.6201 74.5 70.8801 74.56V83.18C70.8801 83.18 70.9601 83.21 71.0001 83.22C71.6801 83.33 72.2001 83.89 72.2001 84.6C72.2001 85.35 71.6201 85.94 70.8801 86V94.64C71.6101 94.7 72.2001 95.29 72.2001 96.04C72.2001 96.79 71.6201 97.38 70.8801 97.44V107.39C70.8801 107.39 70.9601 107.42 71.0001 107.43C71.6801 107.54 72.2001 108.1 72.2001 108.81C72.2001 109.56 71.6201 110.15 70.8801 110.21V119.38C70.8801 119.58 70.8201 119.75 70.7301 119.91V120.23C71.9901 120.48 71.5501 120.48 71.9901 120.48H97.59C98.2 120.48 98.6901 119.99 98.6901 119.38V70.19C98.6901 69.06 100.19 68.66 100.75 69.64L117.63 98.93C117.94 99.48 118.65 99.65 119.18 99.31L134.65 89.41C135.15 89.09 135.31 88.43 135.01 87.92L135 87.93Z" fill="#4D4637"/>
<path d="M70.79 83.1801C70.79 83.1801 70.84 83.1901 70.87 83.2001V74.5801C70.87 74.5801 70.83 74.5901 70.81 74.5901L70.79 83.1801Z" fill="#4D4637"/>
<path d="M70.76 94.63C70.76 94.63 70.83 94.65 70.86 94.65V86.01C70.86 86.01 70.81 86.03 70.78 86.03L70.76 94.63Z" fill="#4D4637"/>
<path d="M70.8101 71.77C70.8101 71.77 70.8401 71.77 70.8601 71.78V62.47C70.8601 62.47 70.8401 62.47 70.8301 62.47L70.8101 71.77Z" fill="#4D4637"/>
<path d="M70.8401 59.64C70.8401 59.64 70.8601 59.64 70.8701 59.64V51.29C70.8701 51.29 70.8701 51.29 70.8601 51.29L70.8401 59.63V59.64Z" fill="#4D4637"/>
<path d="M70.8701 46.18V46.15L68.8401 44.54C69.0901 45.27 69.7001 45.88 70.8701 46.18Z" fill="#4D4637"/>
<path d="M70.8701 48.4702V46.1802L70.8601 48.4702H70.8701Z" fill="#4D4637"/>
<path d="M70.87 110.22C70.87 110.22 70.8 110.24 70.77 110.24C70.76 110.24 70.75 110.24 70.74 110.24L70.72 119.93C70.81 119.77 70.87 119.6 70.87 119.4V110.23V110.22Z" fill="#4D4637"/>
<path d="M70.76 97.47L70.74 107.38C70.74 107.38 70.83 107.4 70.87 107.41V97.46C70.87 97.46 70.8 97.48 70.77 97.48L70.76 97.47Z" fill="#4D4637"/>
<path d="M141.58 99.2201L137.44 92.1201C137.12 91.5801 136.42 91.4101 135.9 91.7401L120.35 101.56C119.85 101.88 119.69 102.53 119.98 103.05L124.03 110.08C124.34 110.62 125.04 110.8 125.57 110.47L141.21 100.71C141.72 100.39 141.88 99.7301 141.58 99.2201ZM125.7 105.34C124.92 105.34 124.28 104.7 124.28 103.92C124.28 103.14 124.92 102.5 125.7 102.5C126.48 102.5 127.12 103.14 127.12 103.92C127.12 104.7 126.48 105.34 125.7 105.34Z" fill="#4D4637"/>
<path d="M373.26 124.33V128.49C373.26 129.94 374.65 131.12 376.37 131.12H394.38C396.25 131.12 397.81 129.9 397.96 128.32L398.3 124.72C398.46 123.05 396.88 121.64 394.91 121.67L375.93 122.01C374.45 122.04 373.26 123.06 373.26 124.32V124.33Z" fill="#4D4637"/>
<path d="M435.47 124.33V128.49C435.47 129.94 434.08 131.12 432.36 131.12H414.35C412.48 131.12 410.92 129.9 410.77 128.32L410.43 124.72C410.27 123.05 411.85 121.64 413.82 121.67L432.8 122.01C434.28 122.04 435.47 123.06 435.47 124.32V124.33Z" fill="#4D4637"/>
<path d="M386.39 10.6101H374.1V15.1901H386.39V10.6101Z" fill="#4D4637"/>
<path d="M434.62 10.6101H422.33V15.1901H434.62V10.6101Z" fill="#4D4637"/>
<path d="M413.85 10.6101H394.53V15.1901H413.85V10.6101Z" fill="#4D4637"/>
<path d="M432.74 16.8201H419.49V11.5801C419.49 11.0501 418.98 10.6101 418.35 10.6101C417.56 10.6101 416.91 11.1601 416.91 11.8301V16.7201H407.06V30.9101C407.06 32.4301 405.61 33.6601 403.82 33.6601V16.7201H391.81V11.8301C391.81 11.1601 391.17 10.6101 390.37 10.6101C389.74 10.6101 389.23 11.0401 389.23 11.5801V16.8201H375.98C374.94 16.8201 374.1 17.5301 374.1 18.4201V116.89C374.1 117.95 375.11 118.81 376.37 118.81H393.63C395.65 118.81 397.33 117.51 397.52 115.81L404.11 56.0701C404.14 55.8101 404.58 55.8101 404.61 56.0701L411.2 115.81C411.39 117.51 413.07 118.81 415.09 118.81H432.35C433.6 118.81 434.62 117.95 434.62 116.89V18.4101C434.62 17.5301 433.78 16.8101 432.74 16.8101V16.8201ZM380.62 32.6901C379.38 33.5801 377.47 32.8401 377.39 31.4701L376.74 20.9301C376.68 19.9701 377.58 19.1601 378.72 19.1601H382.9C384.02 19.1601 384.93 19.9501 384.88 20.9001C384.73 23.9801 384 30.2701 380.63 32.6901H380.62ZM412.37 57.9401C412.25 58.1201 412.03 58.2301 411.81 58.2301C411.71 58.2301 411.61 58.2101 411.51 58.1701L394.15 50.3001C393.84 50.1601 393.72 49.8301 393.89 49.5701C394.06 49.3101 394.44 49.2001 394.75 49.3501L412.11 57.2201C412.42 57.3601 412.54 57.6901 412.37 57.9501V57.9401ZM416.51 56.2401C416.39 56.4201 416.17 56.5301 415.95 56.5301C415.85 56.5301 415.75 56.5101 415.65 56.4701L393.52 46.4401C393.21 46.3001 393.09 45.9701 393.26 45.7101C393.43 45.4501 393.81 45.3501 394.12 45.4901L416.25 55.5201C416.56 55.6601 416.68 55.9901 416.51 56.2501V56.2401ZM431.34 31.4701C431.25 32.8401 429.35 33.5801 428.11 32.6901C424.73 30.2801 424.01 23.9801 423.86 20.9001C423.81 19.9501 424.72 19.1601 425.84 19.1601H430.02C431.16 19.1601 432.06 19.9701 432 20.9301L431.35 31.4701H431.34Z" fill="#4D4637"/>
<path d="M308.3 96.85L274.78 39.74C272.67 36.15 270.23 32.77 267.43 29.69C265.26 27.31 262.94 25.13 261.7 25.13C258.99 25.13 239.43 24.23 239.43 24.23H235.8C235.8 24.23 216.24 25.13 213.53 25.13C212.3 25.13 209.97 27.31 207.8 29.69C205 32.77 202.55 36.15 200.45 39.74L166.93 96.85C166.57 97.46 166.76 98.25 167.37 98.63L181.69 107.61C182.32 108 183.15 107.8 183.52 107.16L205.66 69.47C206.34 68.31 208.11 68.8 208.11 70.14V116.2C208.11 116.93 208.7 117.52 209.43 117.52H235.8L237 79.15L224.36 27.29H251.55L239.43 83.16V117.52H265.8C266.53 117.52 267.12 116.93 267.12 116.2V70.14C267.12 68.8 268.89 68.32 269.57 69.47L291.71 107.16C292.09 107.8 292.92 108 293.54 107.61L307.86 98.63C308.46 98.25 308.66 97.46 308.3 96.85ZM172.4 97.13C171.63 97.13 171.01 96.51 171.01 95.74C171.01 94.97 171.63 94.35 172.4 94.35C173.17 94.35 173.79 94.97 173.79 95.74C173.79 96.51 173.17 97.13 172.4 97.13ZM175.67 92.18C174.9 92.18 174.28 91.56 174.28 90.79C174.28 90.02 174.9 89.4 175.67 89.4C176.44 89.4 177.06 90.02 177.06 90.79C177.06 91.56 176.44 92.18 175.67 92.18ZM229.94 100.35C229.94 101.43 229.06 102.31 227.98 102.31H215.73C214.44 102.31 213.4 101.27 213.4 99.98V97.8L229.95 98.25V100.35H229.94ZM224.74 38.85L218.11 45.48C217.89 45.7 217.84 46.03 217.98 46.3L234.66 79.76C234.92 80.29 234.71 80.93 234.18 81.19C234.03 81.27 233.87 81.3 233.71 81.3C233.32 81.3 232.94 81.08 232.76 80.71L216.08 47.25C215.53 46.15 215.75 44.83 216.61 43.97L219.6 40.98H217.23C215.66 40.98 214.38 39.7 214.38 38.13V27.27C214.38 26.68 214.86 26.2 215.45 26.2C216.04 26.2 216.52 26.68 216.52 27.27V38.13C216.52 38.52 216.84 38.85 217.24 38.85H224.75H224.74ZM242.09 81.31C241.93 81.31 241.77 81.27 241.62 81.2C241.09 80.94 240.88 80.3 241.14 79.77L257.82 46.31C257.96 46.03 257.9 45.7 257.69 45.49L251.06 38.86H258.57C258.96 38.86 259.29 38.54 259.29 38.14V27.28C259.29 26.69 259.77 26.21 260.36 26.21C260.95 26.21 261.43 26.69 261.43 27.28V38.14C261.43 39.71 260.15 40.99 258.58 40.99H256.21L259.2 43.98C260.07 44.85 260.28 46.17 259.74 47.26L243.06 80.72C242.87 81.09 242.5 81.31 242.11 81.31H242.09ZM261.86 99.98C261.86 101.27 260.82 102.31 259.53 102.31H247.28C246.2 102.31 245.32 101.43 245.32 100.35V98.25L261.87 97.8V99.98H261.86ZM299.57 92.18C298.8 92.18 298.18 91.56 298.18 90.79C298.18 90.02 298.8 89.4 299.57 89.4C300.34 89.4 300.96 90.02 300.96 90.79C300.96 91.56 300.34 92.18 299.57 92.18ZM302.84 97.13C302.07 97.13 301.45 96.51 301.45 95.74C301.45 94.97 302.07 94.35 302.84 94.35C303.61 94.35 304.23 94.97 304.23 95.74C304.23 96.51 303.61 97.13 302.84 97.13Z" fill="#4D4637"/>
</g>
<defs>
<clipPath id="clip0_378_153">
<rect width="475.23" height="141.73" fill="white"/>
</clipPath>
</defs>
</svg>
