<svg width="476" height="142" viewBox="0 0 476 142" fill="none" xmlns="http://www.w3.org/2000/svg">
<g clip-path="url(#clip0_378_2)">
<path d="M70.1399 33.83L61.7999 21.94C61.2499 21.16 60.1699 21 59.4199 21.59L53.9399 25.87L65.1399 42.62C65.4599 43.1 66.1699 43.07 66.4599 42.57L70.2399 35.97C70.6299 35.3 70.5899 34.46 70.1399 33.83Z" fill="#FBF8FF"/>
<path d="M87.0301 25.27L82.9801 22.1C81.8701 21.23 80.2601 21.47 79.4501 22.63L71.2501 34.32C71.0201 34.65 71.0001 35.09 71.2001 35.44L75.0701 42.19C75.4601 42.86 76.4101 42.9 76.8401 42.25L87.2601 26.67C87.5601 26.22 87.4701 25.6 87.0301 25.27Z" fill="#FBF8FF"/>
<path d="M69.34 108.82C69.34 108.34 69.59 107.94 69.96 107.68C70.14 107.49 70.39 107.36 70.67 107.36C70.69 107.36 70.71 107.37 70.73 107.37L70.75 97.46C69.97 97.46 69.34 96.82 69.34 96.04C69.34 95.26 69.98 94.62 70.76 94.62L70.78 86.02C70.78 86.02 70.77 86.02 70.76 86.02C69.98 86.02 69.34 85.38 69.34 84.6C69.34 84.12 69.59 83.72 69.96 83.46C70.14 83.27 70.39 83.14 70.67 83.14C70.71 83.14 70.74 83.16 70.78 83.16L70.8 74.57C70.8 74.57 70.77 74.57 70.76 74.57C70.76 74.57 70.75 74.57 70.74 74.57C70.72 74.57 70.69 74.58 70.67 74.58C70.51 74.58 70.3601 74.53 70.2301 74.46C69.7101 74.25 69.34 73.74 69.34 73.15C69.34 72.37 69.98 71.73 70.76 71.73C70.78 71.73 70.79 71.73 70.81 71.73L70.83 62.43C70.78 62.43 70.73 62.46 70.67 62.46C70.39 62.46 70.13 62.33 69.96 62.14C69.6 61.88 69.34 61.48 69.34 61C69.34 60.22 69.98 59.58 70.76 59.58C70.79 59.58 70.81 59.59 70.83 59.6L70.85 51.26C70.85 51.26 70.79 51.28 70.76 51.28C69.98 51.28 69.34 50.64 69.34 49.86C69.34 49.38 69.59 48.98 69.96 48.72C70.14 48.53 70.39 48.4 70.67 48.4C70.74 48.4 70.79 48.43 70.86 48.44V46.15C69.69 45.85 69.0901 45.24 68.8301 44.51L68.68 44.39L66.93 45.85C66.45 46.39 65.5901 46.33 65.1901 45.73L53.03 27.63C52.31 26.56 51.03 26.01 49.76 26.24L46.94 26.74C43.74 27.31 40.9501 29.26 39.3101 32.07L6.73005 87.93C6.43005 88.44 6.59005 89.1 7.09005 89.42L22.56 99.32C23.09 99.66 23.8 99.49 24.11 98.94L40.9901 69.65C41.5501 68.67 43.05 69.07 43.05 70.2V119.39C43.05 120 43.5401 120.49 44.1501 120.49H69.75C70.16 120.49 70.51 120.25 70.7 119.92L70.72 110.23C69.95 110.21 69.3301 109.59 69.3301 108.82H69.34Z" fill="#FBF8FF"/>
<path d="M21.3801 101.56L5.83006 91.74C5.30006 91.41 4.60006 91.58 4.29006 92.12L0.150063 99.22C-0.149937 99.74 0.0100631 100.4 0.520063 100.71L16.1601 110.47C16.6901 110.8 17.3901 110.63 17.7001 110.08L21.7501 103.05C22.0501 102.54 21.8801 101.88 21.3801 101.56ZM16.0301 105.34C15.2501 105.34 14.6101 104.7 14.6101 103.92C14.6101 103.14 15.2501 102.5 16.0301 102.5C16.8101 102.5 17.4501 103.14 17.4501 103.92C17.4501 104.7 16.8101 105.34 16.0301 105.34Z" fill="#FBF8FF"/>
<path d="M135 87.93L102.44 32.09C100.8 29.28 98.0101 27.33 94.8101 26.76L91.9901 26.26C90.7201 26.03 89.4401 26.58 88.7201 27.65L76.5601 45.75C76.1601 46.35 75.2901 46.41 74.8201 45.87L71.3601 39.55C71.0001 38.54 68.0301 42.18 68.8501 44.53L70.8801 46.14V48.46C70.8801 48.46 70.9601 48.49 71.0001 48.5C71.6801 48.61 72.2001 49.17 72.2001 49.88C72.2001 50.63 71.6201 51.22 70.8801 51.28V59.63C71.6101 59.69 72.2001 60.28 72.2001 61.03C72.2001 61.74 71.6701 62.3 71.0001 62.41C70.9601 62.42 70.9301 62.45 70.8801 62.45V71.76C71.6101 71.82 72.2001 72.41 72.2001 73.16C72.2001 73.91 71.6201 74.5 70.8801 74.56V83.18C70.8801 83.18 70.9601 83.21 71.0001 83.22C71.6801 83.33 72.2001 83.89 72.2001 84.6C72.2001 85.35 71.6201 85.94 70.8801 86V94.64C71.6101 94.7 72.2001 95.29 72.2001 96.04C72.2001 96.79 71.6201 97.38 70.8801 97.44V107.39C70.8801 107.39 70.9601 107.42 71.0001 107.43C71.6801 107.54 72.2001 108.1 72.2001 108.81C72.2001 109.56 71.6201 110.15 70.8801 110.21V119.38C70.8801 119.58 70.8201 119.75 70.7301 119.91V120.23C71.9901 120.48 71.5501 120.48 71.9901 120.48H97.59C98.2 120.48 98.6901 119.99 98.6901 119.38V70.19C98.6901 69.06 100.19 68.66 100.75 69.64L117.63 98.93C117.94 99.48 118.65 99.65 119.18 99.31L134.65 89.41C135.15 89.09 135.31 88.43 135.01 87.92L135 87.93Z" fill="#FBF8FF"/>
<path d="M70.79 83.18C70.79 83.18 70.84 83.19 70.87 83.2V74.58C70.87 74.58 70.83 74.59 70.81 74.59L70.79 83.18Z" fill="#FBF8FF"/>
<path d="M70.76 94.63C70.76 94.63 70.83 94.65 70.86 94.65V86.01C70.86 86.01 70.81 86.03 70.78 86.03L70.76 94.63Z" fill="#FBF8FF"/>
<path d="M70.8101 71.77C70.8101 71.77 70.8401 71.77 70.8601 71.78V62.47C70.8601 62.47 70.8401 62.47 70.8301 62.47L70.8101 71.77Z" fill="#FBF8FF"/>
<path d="M70.8401 59.6399C70.8401 59.6399 70.8601 59.6399 70.8701 59.6399V51.2899C70.8701 51.2899 70.8701 51.2899 70.8601 51.2899L70.8401 59.6299V59.6399Z" fill="#FBF8FF"/>
<path d="M70.8701 46.1799V46.1499L68.8401 44.5399C69.0901 45.2699 69.7001 45.8799 70.8701 46.1799Z" fill="#FBF8FF"/>
<path d="M70.8701 48.4699V46.1799L70.8601 48.4699H70.8701Z" fill="#FBF8FF"/>
<path d="M70.87 110.22C70.87 110.22 70.8 110.24 70.77 110.24C70.76 110.24 70.75 110.24 70.74 110.24L70.72 119.93C70.81 119.77 70.87 119.6 70.87 119.4V110.23V110.22Z" fill="#FBF8FF"/>
<path d="M70.76 97.47L70.74 107.38C70.74 107.38 70.83 107.4 70.87 107.41V97.46C70.87 97.46 70.8 97.48 70.77 97.48L70.76 97.47Z" fill="#FBF8FF"/>
<path d="M141.58 99.22L137.44 92.12C137.12 91.58 136.42 91.41 135.9 91.74L120.35 101.56C119.85 101.88 119.69 102.53 119.98 103.05L124.03 110.08C124.34 110.62 125.04 110.8 125.57 110.47L141.21 100.71C141.72 100.39 141.88 99.73 141.58 99.22ZM125.7 105.34C124.92 105.34 124.28 104.7 124.28 103.92C124.28 103.14 124.92 102.5 125.7 102.5C126.48 102.5 127.12 103.14 127.12 103.92C127.12 104.7 126.48 105.34 125.7 105.34Z" fill="#FBF8FF"/>
<path d="M373.26 124.33V128.49C373.26 129.94 374.65 131.12 376.37 131.12H394.38C396.25 131.12 397.81 129.9 397.96 128.32L398.3 124.72C398.46 123.05 396.88 121.64 394.91 121.67L375.93 122.01C374.45 122.04 373.26 123.06 373.26 124.32V124.33Z" fill="#FBF8FF"/>
<path d="M435.47 124.33V128.49C435.47 129.94 434.08 131.12 432.36 131.12H414.35C412.48 131.12 410.92 129.9 410.77 128.32L410.43 124.72C410.27 123.05 411.85 121.64 413.82 121.67L432.8 122.01C434.28 122.04 435.47 123.06 435.47 124.32V124.33Z" fill="#FBF8FF"/>
<path d="M386.39 10.61H374.1V15.19H386.39V10.61Z" fill="#FBF8FF"/>
<path d="M434.62 10.61H422.33V15.19H434.62V10.61Z" fill="#FBF8FF"/>
<path d="M413.85 10.61H394.53V15.19H413.85V10.61Z" fill="#FBF8FF"/>
<path d="M432.74 16.82H419.49V11.58C419.49 11.05 418.98 10.61 418.35 10.61C417.56 10.61 416.91 11.16 416.91 11.83V16.72H407.06V30.91C407.06 32.43 405.61 33.66 403.82 33.66V16.72H391.81V11.83C391.81 11.16 391.17 10.61 390.37 10.61C389.74 10.61 389.23 11.04 389.23 11.58V16.82H375.98C374.94 16.82 374.1 17.53 374.1 18.42V116.89C374.1 117.95 375.11 118.81 376.37 118.81H393.63C395.65 118.81 397.33 117.51 397.52 115.81L404.11 56.07C404.14 55.81 404.58 55.81 404.61 56.07L411.2 115.81C411.39 117.51 413.07 118.81 415.09 118.81H432.35C433.6 118.81 434.62 117.95 434.62 116.89V18.41C434.62 17.53 433.78 16.81 432.74 16.81V16.82ZM380.62 32.69C379.38 33.58 377.47 32.84 377.39 31.47L376.74 20.93C376.68 19.97 377.58 19.16 378.72 19.16H382.9C384.02 19.16 384.93 19.95 384.88 20.9C384.73 23.98 384 30.27 380.63 32.69H380.62ZM412.37 57.94C412.25 58.12 412.03 58.23 411.81 58.23C411.71 58.23 411.61 58.21 411.51 58.17L394.15 50.3C393.84 50.16 393.72 49.83 393.89 49.57C394.06 49.31 394.44 49.2 394.75 49.35L412.11 57.22C412.42 57.36 412.54 57.69 412.37 57.95V57.94ZM416.51 56.24C416.39 56.42 416.17 56.53 415.95 56.53C415.85 56.53 415.75 56.51 415.65 56.47L393.52 46.44C393.21 46.3 393.09 45.97 393.26 45.71C393.43 45.45 393.81 45.35 394.12 45.49L416.25 55.52C416.56 55.66 416.68 55.99 416.51 56.25V56.24ZM431.34 31.47C431.25 32.84 429.35 33.58 428.11 32.69C424.73 30.28 424.01 23.98 423.86 20.9C423.81 19.95 424.72 19.16 425.84 19.16H430.02C431.16 19.16 432.06 19.97 432 20.93L431.35 31.47H431.34Z" fill="#FBF8FF"/>
<path d="M308.3 96.85L274.78 39.74C272.67 36.15 270.23 32.77 267.43 29.69C265.26 27.31 262.94 25.13 261.7 25.13C258.99 25.13 239.43 24.23 239.43 24.23H235.8C235.8 24.23 216.24 25.13 213.53 25.13C212.3 25.13 209.97 27.31 207.8 29.69C205 32.77 202.55 36.15 200.45 39.74L166.93 96.85C166.57 97.46 166.76 98.25 167.37 98.63L181.69 107.61C182.32 108 183.15 107.8 183.52 107.16L205.66 69.47C206.34 68.31 208.11 68.8 208.11 70.14V116.2C208.11 116.93 208.7 117.52 209.43 117.52H235.8L237 79.15L224.36 27.29H251.55L239.43 83.16V117.52H265.8C266.53 117.52 267.12 116.93 267.12 116.2V70.14C267.12 68.8 268.89 68.32 269.57 69.47L291.71 107.16C292.09 107.8 292.92 108 293.54 107.61L307.86 98.63C308.46 98.25 308.66 97.46 308.3 96.85ZM172.4 97.13C171.63 97.13 171.01 96.51 171.01 95.74C171.01 94.97 171.63 94.35 172.4 94.35C173.17 94.35 173.79 94.97 173.79 95.74C173.79 96.51 173.17 97.13 172.4 97.13ZM175.67 92.18C174.9 92.18 174.28 91.56 174.28 90.79C174.28 90.02 174.9 89.4 175.67 89.4C176.44 89.4 177.06 90.02 177.06 90.79C177.06 91.56 176.44 92.18 175.67 92.18ZM229.94 100.35C229.94 101.43 229.06 102.31 227.98 102.31H215.73C214.44 102.31 213.4 101.27 213.4 99.98V97.8L229.95 98.25V100.35H229.94ZM224.74 38.85L218.11 45.48C217.89 45.7 217.84 46.03 217.98 46.3L234.66 79.76C234.92 80.29 234.71 80.93 234.18 81.19C234.03 81.27 233.87 81.3 233.71 81.3C233.32 81.3 232.94 81.08 232.76 80.71L216.08 47.25C215.53 46.15 215.75 44.83 216.61 43.97L219.6 40.98H217.23C215.66 40.98 214.38 39.7 214.38 38.13V27.27C214.38 26.68 214.86 26.2 215.45 26.2C216.04 26.2 216.52 26.68 216.52 27.27V38.13C216.52 38.52 216.84 38.85 217.24 38.85H224.75H224.74ZM242.09 81.31C241.93 81.31 241.77 81.27 241.62 81.2C241.09 80.94 240.88 80.3 241.14 79.77L257.82 46.31C257.96 46.03 257.9 45.7 257.69 45.49L251.06 38.86H258.57C258.96 38.86 259.29 38.54 259.29 38.14V27.28C259.29 26.69 259.77 26.21 260.36 26.21C260.95 26.21 261.43 26.69 261.43 27.28V38.14C261.43 39.71 260.15 40.99 258.58 40.99H256.21L259.2 43.98C260.07 44.85 260.28 46.17 259.74 47.26L243.06 80.72C242.87 81.09 242.5 81.31 242.11 81.31H242.09ZM261.86 99.98C261.86 101.27 260.82 102.31 259.53 102.31H247.28C246.2 102.31 245.32 101.43 245.32 100.35V98.25L261.87 97.8V99.98H261.86ZM299.57 92.18C298.8 92.18 298.18 91.56 298.18 90.79C298.18 90.02 298.8 89.4 299.57 89.4C300.34 89.4 300.96 90.02 300.96 90.79C300.96 91.56 300.34 92.18 299.57 92.18ZM302.84 97.13C302.07 97.13 301.45 96.51 301.45 95.74C301.45 94.97 302.07 94.35 302.84 94.35C303.61 94.35 304.23 94.97 304.23 95.74C304.23 96.51 303.61 97.13 302.84 97.13Z" fill="#FBF8FF"/>
</g>
<defs>
<clipPath id="clip0_378_2">
<rect width="475.23" height="141.73" fill="white"/>
</clipPath>
</defs>
</svg>
