<svg width="63" height="63" viewBox="0 0 63 63" fill="none" xmlns="http://www.w3.org/2000/svg">
<path d="M43.3125 13.125C47.3812 13.125 51.1875 14.3588 54.3113 16.485L51.2663 24.0713C49.0939 22.0864 46.2551 20.9902 43.3125 21C36.75 21 31.5 26.25 31.5 32.8125C31.5 39.375 36.75 44.625 43.3125 44.625C46.0162 44.625 48.4837 43.7325 50.4787 42.21L53.4713 49.6913C50.4048 51.5371 46.8916 52.5084 43.3125 52.5C38.0911 52.5 33.0835 50.4258 29.3913 46.7337C25.6992 43.0415 23.625 38.0339 23.625 32.8125C23.625 27.5911 25.6992 22.5835 29.3913 18.8913C33.0835 15.1992 38.0911 13.125 43.3125 13.125ZM15.75 7.875C17.8386 7.875 19.8416 8.70469 21.3185 10.1815C22.7953 11.6584 23.625 13.6614 23.625 15.75C23.625 17.8386 22.7953 19.8416 21.3185 21.3185C19.8416 22.7953 17.8386 23.625 15.75 23.625C13.6614 23.625 11.6584 22.7953 10.1815 21.3185C8.70469 19.8416 7.875 17.8386 7.875 15.75C7.875 13.6614 8.70469 11.6584 10.1815 10.1815C11.6584 8.70469 13.6614 7.875 15.75 7.875ZM15.75 13.125C15.0538 13.125 14.3861 13.4016 13.8938 13.8938C13.4016 14.3861 13.125 15.0538 13.125 15.75C13.125 16.4462 13.4016 17.1139 13.8938 17.6062C14.3861 18.0984 15.0538 18.375 15.75 18.375C16.4462 18.375 17.1139 18.0984 17.6062 17.6062C18.0984 17.1139 18.375 16.4462 18.375 15.75C18.375 15.0538 18.0984 14.3861 17.6062 13.8938C17.1139 13.4016 16.4462 13.125 15.75 13.125Z" fill="white"/>
</svg>
